/* XPM */
static char *tubetestera[] = {
/* columns rows colors chars-per-pixel */
"24 24 161 2",
"   c #0CF60D1C0F25",
".  c #0E510EB81135",
"X  c #0DD1111213F1",
"o  c #123E12851481",
"O  c #15DB1694188E",
"+  c #17D116E717FF",
"@  c #15E219CB1BB8",
"#  c #1A241AF21BD8",
"$  c #1FCF1F591ECB",
"%  c #16F21BC92130",
"&  c #19591F5522EA",
"*  c #1C29225E25A2",
"=  c #1C77244B2987",
"-  c #1E6D286C2E8E",
";  c #1F582A4B31C7",
":  c #2256235E23D5",
">  c #2ACE29B82774",
",  c #218A26C02984",
"<  c #21B027F72BAD",
"1  c #2C182C462A31",
"2  c #3366328C2E6F",
"3  c #23E32E3435DF",
"4  c #28D72EAF3016",
"5  c #24282CB338EB",
"6  c #274130783580",
"7  c #2D87339835E1",
"8  c #25D532CB3A9B",
"9  c #2A61356B3CA6",
"0  c #34FA347A3169",
"q  c #3CB63B0B35BA",
"w  c #31063B313C58",
"e  c #39CD3DD93D6C",
"r  c #3AB945053F2E",
"t  c #2BF23BB943E4",
"y  c #2EDD3B624A7C",
"u  c #32423D694290",
"i  c #2F9840234812",
"p  c #33CB438F4B6A",
"a  c #3B5D45B2487D",
"s  c #3D8C49964DCB",
"d  c #35DC48645193",
"f  c #3CB04DBA55F6",
"g  c #383846D657F3",
"h  c #3B5B4C695AA3",
"j  c #3DCD50D25841",
"k  c #4364453F436A",
"l  c #4D4253B34BB3",
"z  c #5037519F4B39",
"x  c #425E4EBF53B2",
"c  c #41CB543D5C11",
"v  c #45FD58715F3E",
"b  c #4B9D59AA5EB6",
"n  c #53B15634516F",
"m  c #59C1594D518F",
"M  c #532B5A7457DA",
"N  c #619B604A55F0",
"B  c #429353F0657D",
"V  c #45D458AD6192",
"C  c #4B295E7A6635",
"Z  c #44C257786824",
"A  c #4A485F856A2F",
"S  c #4A655F1171D1",
"D  c #4EBD6109682E",
"F  c #50C15FFF65CB",
"G  c #541C66E96E43",
"H  c #4EE8642C70F4",
"J  c #55E669D273F9",
"K  c #59926B5C72EB",
"L  c #50E865B77A62",
"P  c #5A186E6578AE",
"I  c #631266136066",
"U  c #6B896FDF6598",
"Y  c #66316E3D6A9F",
"T  c #6EBC72DA66FE",
"R  c #6BCA71FF6C6A",
"E  c #749775D26CB9",
"W  c #78DD79A16EA3",
"Q  c #6332701A717E",
"!  c #6926778576D4",
"~  c #740F80FA7EA2",
"^  c #7BA584CC7FFF",
"/  c #815082CE77A0",
"(  c #83F186817C6B",
")  c #577E6F90853F",
"_  c #5D5A7418868C",
"`  c #5D02766E8AE3",
"'  c #624D773E81FF",
"]  c #625578C782DB",
"[  c #63E27C1F8EEB",
"{  c #68437F518A18",
"}  c #65867D9D93E2",
"|  c #6C8C822688CD",
" . c #7E2785328017",
".. c #7CFB8945844C",
"X. c #784589E88BD2",
"o. c #6A5283D193AF",
"O. c #6F18896E9151",
"+. c #784B91E89FD4",
"@. c #74BB90EDA397",
"#. c #7EED9C05ADD3",
"$. c #89A38F538758",
"%. c #84BD911E8CE4",
"&. c #9004986B8F89",
"*. c #877D959B9222",
"=. c #88E996E391E5",
"-. c #8F419D4F9934",
";. c #95959B7790F6",
":. c #91679DB698F1",
">. c #94A6A3EA9DA5",
",. c #9C05A59D9D2E",
"<. c #8D6BA2A9A598",
"1. c #9C4EAAE7A81A",
"2. c #9FE5B0B3AC07",
"3. c #8B8BA8A9B733",
"4. c #9192AE63B798",
"5. c #9B80B06FB089",
"6. c #9311B056BD89",
"7. c #9984B598BDBA",
"8. c #A3F5AD41A47A",
"9. c #A2A7B254AD52",
"0. c #AC47B5E3ACC0",
"q. c #A710B720B0DE",
"w. c #ACFDBB84B4DF",
"e. c #ACCCBDFEBA4F",
"r. c #B1AFBBD7B23E",
"t. c #AF9EC19BBC81",
"y. c #B4A3C2CFBB97",
"u. c #BA5BC96BBFFD",
"i. c #93FDB2B9C0AE",
"p. c #9E2BBAD0C3A5",
"a. c #9C45BB60C856",
"s. c #A144BE15C5F7",
"d. c #B4A6C6DCC1C3",
"f. c #B6EEC9C8C3D0",
"g. c #BBBECCBBC558",
"h. c #BB18CE59C9EB",
"j. c #BFFDD514CFE4",
"k. c #A681C5AFD171",
"l. c #ABB3CADFD5A5",
"z. c #BD10D636D4A7",
"x. c #C2ADCF85C6E5",
"c. c #C304D4B8CDAD",
"v. c #C748DA8BD40C",
"b. c #CB04DCFCD560",
"n. c #C6F6DE97DBF5",
"m. c #CC70E297DDE0",
"M. c #D1E9E5BEDEFC",
"N. c #C64DE2A6E1B3",
"B. c #CC6FE526E270",
"V. c #D02FE91DE6E9",
"C. c #D2FBE729E17E",
"Z. c #D4E1EA7AE4E1",
"A. c #D9EBED94E632",
"S. c #D5FEED1DEA30",
"D. c #DA5EEF2EE9D8",
"F. c #DE01F351ED3B",
"G. c #E211F5F7EE73",
"H. c #E2DCF78FF141",
"J. c #E568F9C4F2D3",
"K. c #E913FCAEF6BB",
"L. c None",
/* pixels */
"L.L.v f p t d H { o.{ ] { +.#.@._ A c v C G L.L.",
"L.f p t t c P K x 7 , : : , 7 s G ' J c j v C L.",
"p t 8 t V G a : # : 2 1 2 0 > # # 7 F J f d f c ",
"9 3 8 c v 4 # 0 m E ( U T ( W N q # # s C p i p ",
"- ; p s , : z ( ,.0.r.0.0.0.8.;./ m : + u f t t ",
"= 6 u , : I ,.y.u.c.b.b.d.c.c.y.8.;.T > O w p 8 ",
"= 6 , # I 0.x.b.f.g.v.c.f.c.v.t.q.y.8.E $ # u 9 ",
"* = # k ,.w.c.h.g.h.v.b.v.v.c.d.d.g.w.&.n o , 9 ",
"# @ :  .g.w.e.c.C.A.G.G.F.F.F.M.v.d.2.>.$.1 O 3 ",
"O @ e 8.e.y.b.F.A.A.F.A.M.C.M.C.D.M.d.9.,.n X * ",
"o # M >.y.Z.G.G.M.m.M.b.v.m.b.m.D.F.Z.d.>.R o O ",
"o * R 9.2.M.J.J.J.J.G.b.b.G.H.G.F.F.C.e.w.%.@ X ",
"o = ~ c.y.9.C.K.K.K.G.v.v.D.K.K.J.F.C.d.g.:.* X ",
"o < ~ b.Z.g.*.h.H.J.H.F.F.H.J.H.H.F.S.m.c.-.* X ",
"o < Q b.D.D.y...e.G.K.F.A.G.H.F.F.D.S.B.j.%.& X ",
"o = b h.S.F.D.g.=.h.1.Y Y ^ v.F.F.S.V.m.h.! = O ",
"o * f <.m.n.B.n.c.>.w r l 1 ~ Z.Z.B.N.z.5.D 3 O ",
"o O 9 ` 6.7.p.p.s.7.O.| X.| 4.l.k.a.i.3.o.g % + ",
". O O 5 h B Z S L ) ` ` [ } [ _ L B g y 5 O O O ",
"  o + o . . . X o o X . o X . . . .     . o # X ",
". . O + o o o o o o o o @ O o o o o o o O # o . ",
"o o o O + o o o o o o O + O o o o o o O # o . . ",
"o o o o O + O o o o o o o o o o o O O + o o o o ",
"L.o o o o o O O O O O O o o o O O O O o o o o L."
};
